<svg width="213" height="50" xmlns="http://www.w3.org/2000/svg"><g fill="#FFF" fill-rule="evenodd"><path d="M56.711 13.24c-.909 0-1.55.26-1.925.78a2.849 2.849 0 0 0-.562 1.7v1.88h3.65c.642 0 1.177.207 1.604.62.428.413.642.94.642 1.58 0 .64-.214 1.167-.642 1.58-.427.413-.962.62-1.604.62h-3.65v14.16c0 .693-.227 1.273-.681 1.74-.455.467-1.03.7-1.725.7-.695 0-1.27-.233-1.724-.7-.455-.467-.682-1.047-.682-1.74V22h-2.166c-.642 0-1.176-.207-1.604-.62-.428-.413-.642-.94-.642-1.58 0-.64.214-1.167.642-1.58.428-.413.962-.62 1.604-.62h2.166v-1.84c0-2 .688-3.627 2.065-4.88C52.854 9.627 54.84 9 57.433 9c.99 0 1.852.2 2.587.6.735.4 1.103 1.013 1.103 1.84 0 .64-.187 1.16-.562 1.56-.374.4-.829.6-1.363.6-.134 0-.274-.013-.421-.04-.148-.027-.301-.053-.462-.08-.641-.16-1.176-.24-1.604-.24zm11.63 22.92c0 .693-.233 1.273-.701 1.74-.468.467-1.05.7-1.745.7-.668 0-1.23-.233-1.684-.7-.455-.467-.682-1.047-.682-1.74V11.44c0-.693.234-1.273.702-1.74.468-.467 1.05-.7 1.745-.7.668 0 1.23.233 1.684.7.455.467.682 1.047.682 1.74v24.72zm22.11-18.96c.696 0 1.27.233 1.725.7.455.467.682 1.047.682 1.74V29.8c0 2.88-.795 5.133-2.386 6.76-1.59 1.627-3.857 2.44-6.798 2.44s-5.2-.813-6.778-2.44c-1.578-1.627-2.366-3.88-2.366-6.76V19.64c0-.693.227-1.273.682-1.74.454-.467 1.029-.7 1.724-.7.695 0 1.27.233 1.725.7.454.467.681 1.047.681 1.74V29.8c0 1.627.361 2.833 1.083 3.62.722.787 1.805 1.18 3.249 1.18 1.47 0 2.567-.393 3.289-1.18.722-.787 1.083-1.993 1.083-3.62V19.64c0-.693.227-1.273.681-1.74.455-.467 1.03-.7 1.725-.7zm12.726 18.96c0 .693-.227 1.273-.682 1.74-.454.467-1.03.7-1.724.7-.695 0-1.27-.233-1.725-.7-.454-.467-.682-1.047-.682-1.74V19.64c0-.693.228-1.273.682-1.74.455-.467 1.03-.7 1.725-.7.695 0 1.27.233 1.724.7.455.467.682 1.047.682 1.74v16.52zm-2.446-21.56c-.91 0-1.551-.147-1.926-.44-.374-.293-.561-.813-.561-1.56v-.76c0-.747.2-1.267.602-1.56.4-.293 1.042-.44 1.925-.44.936 0 1.59.147 1.965.44.374.293.561.813.561 1.56v.76c0 .773-.193 1.3-.581 1.58-.388.28-1.05.42-1.985.42zM126.049 9c.695 0 1.27.227 1.725.68.454.453.681 1.04.681 1.76v24.72c0 .693-.227 1.273-.681 1.74-.455.467-1.03.7-1.725.7-.695 0-1.263-.227-1.704-.68-.442-.453-.676-1.027-.702-1.72-.669.773-1.571 1.433-2.707 1.98a8.178 8.178 0 0 1-3.59.82c-1.845 0-3.516-.473-5.013-1.42-1.498-.947-2.68-2.26-3.55-3.94-.869-1.68-1.303-3.587-1.303-5.72 0-2.133.428-4.047 1.283-5.74.856-1.693 2.026-3.013 3.51-3.96 1.484-.947 3.121-1.42 4.913-1.42 1.283 0 2.486.233 3.61.7 1.122.467 2.071 1.06 2.847 1.78v-7.84c0-.693.227-1.273.682-1.74.454-.467 1.029-.7 1.724-.7zm-8.101 25.6c1.738 0 3.155-.633 4.25-1.9 1.097-1.267 1.645-2.86 1.645-4.78 0-1.92-.548-3.52-1.644-4.8-1.096-1.28-2.513-1.92-4.251-1.92-1.712 0-3.115.64-4.212 1.92-1.096 1.28-1.644 2.88-1.644 4.8s.542 3.513 1.624 4.78c1.083 1.267 2.494 1.9 4.232 1.9zm25.639-17.8c2.273 0 4.104.353 5.495 1.06 1.39.707 2.085 1.647 2.085 2.82 0 .587-.174 1.1-.521 1.54-.348.44-.802.66-1.364.66-.428 0-.775-.06-1.043-.18a3.745 3.745 0 0 1-.782-.48 5.58 5.58 0 0 0-.742-.5c-.267-.133-.661-.253-1.183-.36-.521-.107-.942-.16-1.263-.16-2.005 0-3.576.62-4.713 1.86-1.136 1.24-1.704 2.86-1.704 4.86 0 1.92.575 3.513 1.724 4.78 1.15 1.267 2.62 1.9 4.412 1.9 1.31 0 2.286-.16 2.928-.48.16-.08.38-.22.662-.42.28-.2.541-.353.782-.46.24-.107.534-.16.882-.16.668 0 1.197.213 1.584.64.388.427.582.973.582 1.64 0 .64-.375 1.24-1.123 1.8-.749.56-1.738 1.007-2.968 1.34-1.23.333-2.54.5-3.93.5-2.06 0-3.87-.48-5.435-1.44-1.564-.96-2.774-2.287-3.63-3.98-.855-1.693-1.283-3.58-1.283-5.66 0-2.16.448-4.08 1.344-5.76.895-1.68 2.145-2.993 3.75-3.94 1.604-.947 3.422-1.42 5.454-1.42zm29.249 0c.695 0 1.27.227 1.725.68.454.453.681 1.04.681 1.76v16.92c0 .693-.227 1.273-.681 1.74-.455.467-1.03.7-1.725.7-.695 0-1.263-.227-1.705-.68-.44-.453-.675-1.027-.701-1.72-.669.773-1.571 1.433-2.708 1.98a8.178 8.178 0 0 1-3.59.82c-1.844 0-3.515-.473-5.012-1.42-1.498-.947-2.68-2.26-3.55-3.94-.869-1.68-1.303-3.587-1.303-5.72 0-2.133.428-4.047 1.283-5.74.856-1.693 2.026-3.013 3.51-3.96 1.483-.947 3.121-1.42 4.912-1.42 1.284 0 2.487.233 3.61.7 1.123.467 2.072 1.06 2.848 1.78v-.04c0-.693.227-1.273.681-1.74.455-.467 1.03-.7 1.725-.7zm-8.101 17.8c1.737 0 3.155-.633 4.25-1.9 1.097-1.267 1.645-2.86 1.645-4.78 0-1.92-.548-3.52-1.644-4.8-1.096-1.28-2.514-1.92-4.251-1.92-1.712 0-3.115.64-4.212 1.92-1.096 1.28-1.644 2.88-1.644 4.8s.541 3.513 1.624 4.78c1.083 1.267 2.494 1.9 4.232 1.9zm27.444-17.8c.802 0 1.477.227 2.025.68.548.453.822.987.822 1.6 0 .827-.214 1.447-.641 1.86-.428.413-.936.62-1.525.62-.4 0-.855-.093-1.363-.28-.08-.027-.26-.08-.542-.16a3.28 3.28 0 0 0-.902-.12c-.695 0-1.364.213-2.005.64-.642.427-1.17 1.073-1.584 1.94-.415.867-.622 1.9-.622 3.1v9.48c0 .693-.227 1.273-.682 1.74-.454.467-1.03.7-1.724.7-.696 0-1.27-.233-1.725-.7-.455-.467-.682-1.047-.682-1.74V19.64c0-.693.227-1.273.682-1.74.454-.467 1.03-.7 1.725-.7.695 0 1.27.233 1.724.7.455.467.682 1.047.682 1.74v.52c.615-1.093 1.497-1.927 2.647-2.5a8.156 8.156 0 0 1 3.69-.86zm17.177 17.28c.374 0 .715.18 1.022.54.308.36.462.833.462 1.42 0 .72-.395 1.327-1.184 1.82-.788.493-1.677.74-2.667.74-1.657 0-3.054-.353-4.19-1.06-1.137-.707-1.705-2.207-1.705-4.5V22h-1.845c-.642 0-1.177-.213-1.604-.64-.428-.427-.642-.96-.642-1.6 0-.613.214-1.127.642-1.54.427-.413.962-.62 1.604-.62h1.845v-2.56c0-.693.234-1.273.702-1.74.468-.467 1.049-.7 1.744-.7.669 0 1.23.233 1.685.7.454.467.681 1.047.681 1.74v2.56h2.848c.642 0 1.176.213 1.604.64.428.427.642.96.642 1.6 0 .613-.214 1.127-.642 1.54-.428.413-.962.62-1.604.62h-2.848v10.84c0 .56.148.967.442 1.22.294.253.695.38 1.203.38.214 0 .508-.053.882-.16.321-.133.629-.2.923-.2z"/><path d="M32 29.93c0 5.089-1.57 8.08-3.633 10.35-2.063 2.272-5.637 4.644-10.256 4.644-4.619 0-8.332-2.216-10.474-4.644C5.495 37.853 4 35.02 4 29.93V8.694c5.193 3.269 10.342 3.343 15.446.223C23.386 6.309 27.57 5.006 32 5.006V29.93z"/></g></svg>